<svg width="25" height="26" viewBox="0 0 25 26" fill="none" xmlns="http://www.w3.org/2000/svg">
<ellipse cx="12.5001" cy="12.5011" rx="12.5001" ry="12.5011" fill="#0A66C2"/>
<mask id="mask0_1501_4693" style="mask-type:alpha" maskUnits="userSpaceOnUse" x="0" y="0" width="26" height="26">
<ellipse cx="12.5001" cy="12.5011" rx="12.5001" ry="12.5011" fill="#0A66C2"/>
</mask>
<g mask="url(#mask0_1501_4693)">
<rect x="5.08847" y="5.57825" width="15.2383" height="13.2791" fill="white"/>
<path d="M19.0789 17.6839H16.5694V13.7943C16.5694 12.8668 16.5526 11.6728 15.2642 11.6728C13.9571 11.6728 13.7571 12.6833 13.7571 13.7267V17.6836H11.2476V9.68501H13.6567V10.7781H13.6905C13.9316 10.3701 14.28 10.0345 14.6985 9.80696C15.1171 9.57943 15.5902 9.46853 16.0675 9.48606C18.611 9.48606 19.0799 11.1419 19.0799 13.296L19.0789 17.6839ZM8.41606 8.59166C8.12803 8.59171 7.84645 8.50723 7.60693 8.3489C7.36742 8.19057 7.18073 7.96549 7.07046 7.70214C6.96019 7.43879 6.93129 7.149 6.98743 6.8694C7.04357 6.58979 7.18223 6.33295 7.38586 6.13134C7.58949 5.92973 7.84895 5.79241 8.13144 5.73675C8.41392 5.68108 8.70674 5.70957 8.97286 5.81862C9.23898 5.92766 9.46646 6.11236 9.62652 6.34935C9.78659 6.58635 9.87205 6.865 9.8721 7.15007C9.87214 7.33935 9.8345 7.52678 9.76134 7.70167C9.68819 7.87655 9.58096 8.03546 9.44575 8.16932C9.31055 8.30319 9.15001 8.40938 8.97334 8.48185C8.79667 8.55431 8.60731 8.59163 8.41606 8.59166ZM9.67081 17.6839H7.15869V9.68501H9.67081V17.6839ZM22.7727 3.40251H3.94352C3.61594 3.39885 3.30029 3.52405 3.06594 3.75061C2.83159 3.97716 2.69772 4.28653 2.69373 4.61073V18.9539C2.69759 19.2783 2.83138 19.5879 3.06572 19.8147C3.30006 20.0414 3.61578 20.1669 3.94352 20.1634H22.7727C23.101 20.1675 23.4176 20.0424 23.6529 19.8156C23.8882 19.5889 24.0229 19.2789 24.0274 18.9539V4.6097C24.0227 4.28485 23.8879 3.97513 23.6527 3.74858C23.4174 3.52204 23.1009 3.39719 22.7727 3.40147" fill="#0A66C2"/>
</g>
</svg>
