<svg width="208" height="45" viewBox="0 0 208 45" fill="none" xmlns="http://www.w3.org/2000/svg">
<path d="M45.76 17.2961C44.8556 16.9281 44.1322 16.7441 43.4087 16.7441C42.6852 16.7441 41.7809 16.3761 41.4191 15.6401L38.7061 10.8561C38.3443 10.1201 38.3443 9.20014 38.7061 8.46414C39.2487 7.54414 39.6104 6.25614 39.4296 4.96814C39.2487 2.39214 37.0783 0.184145 34.5461 0.000144824C32.1948 -0.183855 30.2052 0.920145 29.12 2.76014C28.7583 3.49614 28.0348 3.86414 27.1304 3.86414H21.8852C21.1617 3.86414 20.2574 3.31214 19.8956 2.76014C18.8104 0.920145 16.8208 -0.183855 14.4695 0.000144824C12.1182 0.368145 9.94778 2.57614 9.76691 5.15214C9.58604 6.44014 9.94778 7.54414 10.4904 8.64814C10.8521 9.20014 11.033 10.1201 10.4904 10.8561L7.95821 15.6401C7.4156 16.3761 6.69213 16.7441 5.78778 16.7441C5.24517 16.7441 4.88343 16.7441 4.34082 16.9281C2.17039 17.4801 0.361695 19.3201 -4.40031e-05 21.5281C-0.542653 25.0241 1.98952 28.1521 5.42604 28.1521H5.60691C6.33039 28.1521 7.23473 28.5201 7.59647 29.2561L10.3095 34.0401C10.6713 34.7761 10.6713 35.6961 10.3095 36.4321C9.76691 37.3521 9.40517 38.6401 9.58604 39.7441C9.76691 42.3201 11.9373 44.5281 14.4695 44.7121C16.64 44.8961 18.8104 43.7921 19.8956 41.9521C20.2574 41.2161 20.9809 40.8481 21.8852 40.8481H27.3113C28.0348 40.8481 28.9391 41.4001 29.3009 41.9521C30.2052 43.6081 32.1948 44.7121 34.1843 44.7121C37.0783 44.7121 39.6104 42.1361 39.6104 39.1921C39.7913 36.0641 37.2591 33.4881 34.0035 33.4881C31.833 33.4881 29.8435 34.7761 28.9391 36.6161C28.5774 37.3521 27.8539 37.9041 26.9496 37.9041H22.0661C21.1617 37.9041 20.4383 37.3521 20.0765 36.6161C19.1722 34.7761 17.1826 33.4881 15.0121 33.4881C14.8313 33.4881 14.8313 33.4881 14.6504 33.4881C13.9269 33.4881 13.0226 33.1201 12.6608 32.3841L9.94778 27.7841C9.58604 27.0481 9.58604 26.1281 9.94778 25.3921C9.94778 25.3921 9.94778 25.3921 9.94778 25.2081C10.3095 24.4721 11.033 24.1041 11.9373 24.1041H17.5443C18.4487 24.1041 19.1722 24.6561 19.5339 25.3921C20.4383 27.0481 22.2469 28.1521 24.2365 28.1521C26.2261 28.1521 28.0348 27.0481 29.12 25.2081C29.4817 24.4721 30.2052 23.9201 31.1096 23.9201H37.9826C38.5252 26.3121 40.6956 27.9681 43.4087 27.9681C46.6643 27.9681 49.1965 25.0241 49.0156 21.7121C48.8348 19.8721 47.5687 18.0321 45.76 17.2961ZM24.5983 16.7441C22.4278 16.7441 20.6191 18.0321 19.7148 19.8721C19.353 20.6081 18.6296 20.9761 17.7252 20.9761H12.48C11.5756 20.9761 10.8521 20.4241 10.4904 19.6881C10.4904 19.5041 10.3095 19.5041 10.3095 19.3201C9.94778 18.5841 9.76691 17.8481 10.3095 17.1121L13.0226 12.1441C13.3843 11.4081 14.2886 11.0401 15.0121 11.0401H15.193C17.3634 11.0401 19.1722 9.75214 20.0765 7.91214C20.4383 7.17614 21.1617 6.62414 22.0661 6.62414H27.1304C27.8539 6.62414 28.7583 7.17614 29.12 7.91214C30.0243 9.75214 31.833 11.0401 34.0035 11.0401H34.1843C35.0887 11.0401 35.8122 11.4081 36.1739 12.1441L38.7061 16.7441C39.0678 17.4801 39.2487 18.4001 38.7061 19.1361C38.3443 19.6881 38.1635 20.0561 38.1635 20.7921H31.2904C30.3861 20.7921 29.6626 20.2401 29.3009 19.5041C28.3965 18.0321 26.5878 16.7441 24.5983 16.7441Z" fill="url(#paint0_linear_1501_4721)"/>
<path d="M74.1565 15.6402C74.6992 15.6402 75.0609 15.4562 75.4226 15.0882C75.7844 14.7202 75.9652 14.3522 75.9652 13.9842C75.9652 13.4322 75.7844 13.0642 75.4226 12.6962C75.0609 12.3282 74.6992 12.1442 74.1565 12.1442H64.7513C64.2087 12.1442 63.847 12.3282 63.4852 12.6962C63.1235 13.0642 62.9426 13.4322 62.9426 13.9842V30.5442C62.9426 31.0962 63.1235 31.4642 63.4852 31.8322C63.847 32.2002 64.2087 32.3842 64.7513 32.3842H74.1565C74.6992 32.3842 75.0609 32.2002 75.4226 31.8322C75.7844 31.4642 75.9652 31.0962 75.9652 30.7282C75.9652 30.1762 75.7844 29.9922 75.4226 29.6242C75.0609 29.2562 74.6992 29.0722 74.1565 29.0722H66.56V23.7362H72.8905C73.4331 23.7362 73.7948 23.5522 74.1565 23.1842C74.5183 22.8162 74.6992 22.4482 74.6992 22.0802C74.6992 21.5282 74.5183 21.1602 74.1565 20.7922C73.7948 20.4242 73.4331 20.2402 72.8905 20.2402H66.56V15.4562L74.1565 15.6402ZM96.2226 16.7442C95.1374 16.7442 94.0522 17.1122 93.1479 17.6642C92.2435 18.2162 91.52 19.1362 91.1583 19.8722C90.6157 17.8482 88.9879 16.7442 86.6366 16.7442C85.7322 16.7442 84.8279 16.9282 84.1044 17.4802C83.3809 18.0322 82.6574 18.5842 82.1148 19.3202V18.7682C82.1148 18.2162 81.9339 17.8482 81.5722 17.4802C81.2105 17.1122 80.8487 16.9282 80.3061 16.9282C79.7635 16.9282 79.4018 17.1122 79.04 17.4802C78.6783 17.8482 78.4974 18.2162 78.4974 18.7682V30.7282C78.4974 31.2802 78.6783 31.6482 79.04 32.0162C79.4018 32.3842 79.7635 32.5682 80.3061 32.5682C80.8487 32.5682 81.2105 32.3842 81.5722 32.0162C81.9339 31.6482 82.1148 31.2802 82.1148 30.7282V23.3682C82.1148 22.4482 82.4766 21.5282 83.0192 20.9762C83.5618 20.4242 84.4661 20.0562 85.5513 20.0562C86.6365 20.0562 87.36 20.4242 87.7218 20.9762C88.0835 21.5282 88.2644 22.4482 88.2644 23.5522V30.9122C88.2644 31.4642 88.4452 31.8322 88.807 32.2002C89.1687 32.5682 89.5305 32.7522 90.0731 32.7522C90.6157 32.7522 90.9774 32.5682 91.3392 32.2002C91.7009 31.8322 91.8818 31.4642 91.8818 30.9122V23.5522C91.8818 22.6322 92.2435 21.7122 92.7861 21.1602C93.3287 20.6082 94.2331 20.2402 95.3183 20.2402C96.4035 20.2402 97.127 20.6082 97.4887 21.1602C97.8505 21.7122 98.0313 22.6322 98.0313 23.7362V31.0962C98.0313 31.6482 98.2122 32.0162 98.5739 32.3842C98.9357 32.7522 99.2974 32.9362 99.84 32.9362C100.383 32.9362 100.744 32.7522 101.106 32.3842C101.468 32.0162 101.649 31.6482 101.649 31.0962V23.7362C101.649 21.7122 101.287 20.0562 100.564 18.9522C99.4783 17.4802 98.0313 16.7442 96.2226 16.7442ZM116.48 17.8482C115.395 17.1122 114.31 16.9282 113.044 16.9282C112.139 16.9282 111.235 17.1122 110.511 17.4802C109.788 17.8482 109.064 18.4002 108.703 18.9522V18.7682C108.703 18.2162 108.522 17.8482 108.16 17.4802C107.798 17.1122 107.437 16.9282 106.894 16.9282C106.351 16.9282 105.99 17.1122 105.628 17.4802C105.266 17.8482 105.085 18.2162 105.085 18.7682V36.4322C105.085 36.9842 105.266 37.3522 105.628 37.7202C105.99 38.0882 106.351 38.2722 106.894 38.2722C107.437 38.2722 107.798 38.0882 108.16 37.7202C108.522 37.3522 108.703 36.9842 108.703 36.4322V30.7282C109.245 31.2802 109.969 31.6482 110.692 32.0162C111.416 32.3842 112.32 32.5682 113.224 32.5682C114.49 32.5682 115.576 32.2002 116.661 31.6482C117.746 30.9122 118.47 29.9922 119.193 28.7042C119.736 27.4162 120.097 26.1282 120.097 24.4722C120.097 23.0002 119.736 21.5282 119.193 20.4242C118.47 19.5042 117.565 18.5842 116.48 17.8482ZM115.576 28.3362C114.852 29.2562 113.767 29.8082 112.501 29.8082C111.235 29.8082 110.33 29.2562 109.426 28.3362C108.522 27.4162 108.341 26.3122 108.341 24.8402C108.341 23.3682 108.703 22.2642 109.426 21.3442C110.15 20.4242 111.235 20.0562 112.501 20.0562C113.767 20.0562 114.671 20.6082 115.576 21.3442C116.299 22.2642 116.661 23.3682 116.661 24.8402C116.661 26.1282 116.299 27.2322 115.576 28.3362ZM131.13 16.7442C130.226 16.7442 129.322 16.9282 128.598 17.4802C127.875 18.0322 127.151 18.5842 126.609 19.3202V12.8802C126.609 12.3282 126.428 11.9602 126.066 11.5922C125.704 11.2242 125.343 11.0402 124.8 11.0402C124.257 11.0402 123.896 11.2242 123.534 11.5922C123.172 11.9602 122.991 12.3282 122.991 12.8802V30.7282C122.991 31.2802 123.172 31.6482 123.534 32.0162C123.896 32.3842 124.257 32.5682 124.8 32.5682C125.343 32.5682 125.704 32.3842 126.066 32.0162C126.428 31.6482 126.609 31.2802 126.609 30.7282V23.3682C126.609 22.4482 126.97 21.5282 127.513 20.9762C128.056 20.4242 128.96 20.0562 130.045 20.0562C131.13 20.0562 131.854 20.4242 132.216 20.9762C132.577 21.5282 132.758 22.4482 132.758 23.5522V30.9122C132.758 31.4642 132.939 31.8322 133.301 32.2002C133.663 32.5682 134.024 32.7522 134.567 32.7522C135.11 32.7522 135.471 32.5682 135.833 32.2002C136.195 31.8322 136.376 31.4642 136.376 30.9122V23.5522C136.376 21.5282 136.014 19.8722 135.29 18.7682C134.205 17.4802 132.939 16.7442 131.13 16.7442ZM152.292 16.7442C151.75 16.7442 151.388 16.9282 151.026 17.2962C150.664 17.6642 150.484 18.0322 150.484 18.5842C149.941 18.0322 149.217 17.6642 148.494 17.2962C147.77 16.9282 146.866 16.7442 145.962 16.7442C144.696 16.7442 143.61 17.1122 142.525 17.6642C141.44 18.4002 140.717 19.3202 139.993 20.6082C139.45 21.8962 139.089 23.1842 139.089 24.8402C139.089 26.3122 139.45 27.7842 139.993 28.8882C140.536 30.1762 141.44 31.0962 142.525 31.6482C143.61 32.3842 144.696 32.5682 145.962 32.5682C146.866 32.5682 147.77 32.3842 148.494 32.0162C149.217 31.6482 149.941 31.0962 150.303 30.5442C150.303 31.0962 150.484 31.4642 150.845 31.8322C151.207 32.2002 151.569 32.3842 152.111 32.3842C152.654 32.3842 153.016 32.2002 153.377 31.8322C153.739 31.4642 153.92 31.0962 153.92 30.5442V18.4002C153.92 17.8482 153.739 17.4802 153.377 17.1122C153.197 16.9282 152.835 16.7442 152.292 16.7442ZM149.579 28.3362C148.856 29.2562 147.77 29.6242 146.504 29.6242C145.238 29.6242 144.334 29.0722 143.43 28.3362C142.706 27.4162 142.344 26.3122 142.344 24.8402C142.344 23.3682 142.706 22.2642 143.43 21.3442C144.153 20.4242 145.238 19.8722 146.504 19.8722C147.77 19.8722 148.675 20.4242 149.579 21.3442C150.303 22.2642 150.664 23.3682 150.664 24.8402C150.664 26.1282 150.303 27.2322 149.579 28.3362ZM167.485 22.6322C166.581 22.2642 165.496 21.8962 164.23 21.3442C162.602 20.7922 161.517 20.2402 160.612 19.6882C159.889 19.1362 159.346 18.2162 159.346 17.1122C159.346 16.0082 159.889 15.2722 160.612 14.5362C161.517 13.9842 162.602 13.6162 163.868 13.6162C164.772 13.6162 165.677 13.8002 166.581 14.1682C167.666 14.7202 168.209 15.2722 168.751 15.8242C168.932 16.0082 169.113 16.0082 169.294 16.0082C169.475 16.0082 169.837 15.8242 169.837 15.6402C169.837 15.4562 170.198 15.2722 170.198 15.0882C170.198 14.9042 170.017 14.5362 169.837 14.3522C169.294 13.6162 168.39 13.0642 167.485 12.6962C166.4 12.3282 165.496 12.1442 164.23 12.1442C162.964 12.1442 161.878 12.3282 160.974 12.8802C160.07 13.4322 159.165 13.9842 158.804 14.7202C158.261 15.4562 158.08 16.3762 158.08 17.4802C158.08 18.5842 158.261 19.5042 158.804 20.2402C159.346 20.9762 159.889 21.5282 160.793 22.0802C161.517 22.6322 162.602 22.8162 163.868 23.3682C164.953 23.7362 165.857 24.1042 166.581 24.4722C167.304 24.8402 167.847 25.2082 168.39 25.7602C168.932 26.3122 169.113 27.0482 169.113 27.7842C169.113 28.8882 168.57 29.6242 167.847 30.3602C166.943 30.9122 165.857 31.2802 164.41 31.2802C162.24 31.2802 160.431 30.5442 158.804 28.8882C158.623 28.7042 158.442 28.5202 158.261 28.5202C158.08 28.5202 157.899 28.7042 157.718 28.8882C157.537 29.0722 157.357 29.2562 157.357 29.4402C157.357 29.8082 157.537 29.9922 157.718 30.1762C158.623 31.0962 159.708 31.8322 160.793 32.3842C161.878 32.9362 162.964 33.1202 164.41 33.1202C165.677 33.1202 166.762 32.9362 167.847 32.3842C168.751 31.8322 169.656 31.2802 170.198 30.5442C170.741 29.8082 170.922 28.8882 170.922 27.9682C170.922 26.6802 170.56 25.7602 170.198 24.8402C169.113 23.7362 168.39 23.1842 167.485 22.6322ZM184.125 18.4002C183.04 17.8482 181.774 17.4802 180.508 17.4802C179.242 17.4802 177.976 17.8482 176.89 18.4002C175.805 18.9522 174.901 20.0562 174.358 21.1602C173.816 22.2642 173.454 23.5522 173.454 25.0242C173.454 26.4962 173.816 27.7842 174.358 28.8882C174.901 29.9922 175.805 30.9122 176.89 31.6482C177.976 32.2002 179.242 32.5682 180.508 32.5682C181.774 32.5682 183.04 32.2002 184.125 31.6482C185.21 31.0962 186.115 29.9922 186.657 28.8882C187.2 27.7842 187.562 26.4962 187.562 25.0242C187.562 23.5522 187.2 22.2642 186.657 21.1602C185.934 20.0562 185.21 19.1362 184.125 18.4002ZM185.21 28.3362C184.668 29.2562 184.125 29.9922 183.221 30.5442C182.317 31.0962 181.412 31.2802 180.508 31.2802C179.423 31.2802 178.518 30.9122 177.795 30.5442C177.071 30.1762 176.348 29.2562 175.805 28.3362C175.263 27.4162 175.082 26.4962 175.082 25.2082C175.082 24.1042 175.263 23.0002 175.805 22.0802C176.348 21.1602 176.89 20.4242 177.795 19.8722C178.518 19.3202 179.604 19.1362 180.508 19.1362C181.412 19.1362 182.497 19.5042 183.221 19.8722C184.125 20.4242 184.668 21.1602 185.21 22.0802C185.753 23.0002 185.934 23.9202 185.934 25.2082C185.934 26.3122 185.753 27.2322 185.21 28.3362ZM197.148 11.5922C196.605 11.4082 196.244 11.4082 195.701 11.4082C194.616 11.4082 193.711 11.7762 192.988 12.3282C192.264 12.8802 191.903 13.9842 191.903 15.0882V18.0322H189.913C189.732 18.0322 189.551 18.0322 189.37 18.2162C189.19 18.4002 189.19 18.5842 189.19 18.7682C189.19 18.9522 189.19 19.1362 189.37 19.3202C189.551 19.5042 189.732 19.5042 189.913 19.5042H191.903V31.4642C191.903 31.6482 191.903 32.0162 192.084 32.0162C192.264 32.2002 192.445 32.2002 192.626 32.2002C192.807 32.2002 193.169 32.2002 193.169 32.0162C193.35 31.8322 193.35 31.6482 193.35 31.4642V19.5042H196.424C196.605 19.5042 196.786 19.5042 196.967 19.3202C197.148 19.1362 197.148 18.9522 197.148 18.7682C197.148 18.5842 197.148 18.4002 196.967 18.2162C196.786 18.0322 196.605 18.0322 196.424 18.0322H193.35V15.0882C193.35 14.3522 193.53 13.8002 193.892 13.4322C194.254 13.0642 194.616 12.8802 195.339 12.8802C195.52 12.8802 195.882 12.8802 196.244 13.0642C196.424 13.2482 196.786 13.2482 196.786 13.2482C196.786 13.2482 197.148 13.2482 197.329 13.0642C197.51 12.8802 197.51 12.6962 197.51 12.5122C197.871 11.9602 197.69 11.7762 197.148 11.5922ZM207.096 19.5042C207.277 19.5042 207.457 19.5042 207.638 19.3202C207.819 19.1362 207.819 18.9522 207.819 18.7682C207.819 18.5842 207.819 18.4002 207.638 18.2162C207.457 18.0322 207.277 18.0322 207.096 18.0322H204.383V14.7202C204.383 14.5362 204.383 14.1682 204.202 14.1682C204.021 13.9842 203.84 13.9842 203.659 13.9842C203.478 13.9842 203.117 13.9842 203.117 14.1682C202.574 14.1682 202.574 14.3522 202.574 14.7202V17.8482H200.584C200.404 17.8482 200.223 17.8482 200.042 18.0322C199.861 18.2162 199.861 18.4002 199.861 18.5842C199.861 18.7682 199.861 18.9522 200.042 19.1362C200.223 19.3202 200.404 19.3202 200.584 19.3202H202.574V29.0722C202.574 30.1762 202.755 30.9122 203.117 31.2802C203.478 31.8322 203.84 32.0162 204.202 32.2002C204.564 32.3842 205.106 32.3842 205.649 32.3842C206.01 32.3842 206.372 32.2002 206.734 32.0162C207.096 31.8322 207.277 31.6482 207.277 31.2802C207.277 31.0962 207.277 30.9122 207.096 30.7282C206.915 30.5442 206.734 30.5442 206.553 30.5442C206.372 30.5442 206.372 30.5442 206.191 30.5442C206.01 30.5442 205.83 30.5442 205.83 30.5442C205.287 30.5442 205.106 30.3602 204.744 30.1762C204.383 29.9922 204.383 29.4402 204.383 28.7042V19.1362H207.096V19.5042Z" fill="#4B4B4B"/>
<defs>
<linearGradient id="paint0_linear_1501_4721" x1="7.72905" y1="39.6306" x2="42.0551" y2="5.88858" gradientUnits="userSpaceOnUse">
<stop stop-color="#0090C6"/>
<stop offset="1" stop-color="#1EDDD6"/>
</linearGradient>
</defs>
</svg>
